<svg width="1024" height="1024" viewBox="0 0 1024 1024" fill="none" xmlns="http://www.w3.org/2000/svg">
<path d="M620.333 376.583H620.584" stroke="black" stroke-width="50" stroke-linecap="round" stroke-linejoin="round"/>
<path d="M279.083 674.499H512C569.463 674.499 624.573 651.672 665.206 611.039C705.839 570.407 728.666 515.297 728.666 457.833V376.583C728.727 353.506 721.417 331.012 707.801 312.379C694.185 293.747 674.975 279.949 652.97 272.997C630.964 266.045 607.314 266.301 585.464 273.729C563.615 281.157 544.708 295.368 531.5 314.292L241.167 728.666" stroke="black" stroke-width="50" stroke-linecap="round" stroke-linejoin="round"/>
<path d="M728.668 376.583L782.834 390.125L728.668 403.666" stroke="black" stroke-width="50" stroke-linecap="round" stroke-linejoin="round"/>
<path d="M457.834 674.5V755.75" stroke="black" stroke-width="50" stroke-linecap="round" stroke-linejoin="round"/>
<path d="M566.166 667.73V755.751" stroke="black" stroke-width="50" stroke-linecap="round" stroke-linejoin="round"/>
<path d="M376.583 674.5C409.98 674.499 442.566 664.207 469.905 645.026C497.244 625.845 518.01 598.706 529.376 567.302C540.741 535.899 542.155 501.756 533.424 469.52C524.694 437.284 506.243 408.522 480.583 387.146" stroke="black" stroke-width="50" stroke-linecap="round" stroke-linejoin="round"/>
</svg>
